<svg width="820" height="159" viewBox="0 0 820 159" fill="none" xmlns="http://www.w3.org/2000/svg">
<path d="M64.13 24.8504C54.48 24.8504 51.69 29.1304 51.69 38.5704V54.2304H77.43L74.85 79.5304H51.7V156.31H20.81V79.5304H0V54.2304H20.81V39.0004C20.81 13.4804 31.1 0.000402047 59.81 0.000402047C65.8263 -0.0137088 71.8377 0.343637 77.81 1.0704V24.8804L64.13 24.8504Z" fill="#1877F2"/>
<path d="M79.5684 102.05C79.5684 73.5303 93.0784 52.0503 121.388 52.0503C136.828 52.0503 146.258 59.9903 150.768 69.8503V54.2303H180.358V156.31H150.768V140.87C146.478 150.74 136.828 158.46 121.388 158.46C93.0784 158.46 79.5684 137.01 79.5684 108.46V102.05ZM110.448 108.92C110.448 124.14 116.018 134.22 130.388 134.22C143.048 134.22 149.478 125 149.478 110.42V100.17C149.478 85.5903 143.048 76.3703 130.388 76.3703C116.018 76.3703 110.448 86.4503 110.448 101.67V108.92Z" fill="#1877F2"/>
<path d="M244.699 52.0803C256.699 52.0803 268.069 54.6603 274.289 58.9403L267.429 80.8203C260.995 77.7564 253.966 76.145 246.839 76.1003C230.109 76.1003 222.839 85.7503 222.839 102.27V108.27C222.839 124.79 230.129 134.44 246.839 134.44C253.966 134.396 260.995 132.784 267.429 129.72L274.289 151.59C268.069 155.88 256.709 158.46 244.699 158.46C208.449 158.46 191.939 138.94 191.939 107.63V102.91C191.939 71.6003 208.449 52.0803 244.699 52.0803Z" fill="#1877F2"/>
<path d="M278.359 109.17V100.17C278.359 71.2204 294.869 52.1704 328.549 52.1704C360.289 52.1704 374.229 71.4704 374.229 99.7804V116.08H309.229C309.879 130.02 316.099 136.24 333.229 136.24C344.819 136.24 357.039 133.88 366.049 130.02L371.699 151.17C363.549 155.47 346.819 158.68 332.029 158.68C292.939 158.67 278.359 139.17 278.359 109.17ZM309.239 95.8704H346.559V93.3004C346.559 82.1504 342.059 73.3004 328.559 73.3004C314.609 73.3104 309.239 82.1104 309.239 95.8304V95.8704Z" fill="#1877F2"/>
<path d="M488.7 108.49C488.7 137.01 474.98 158.49 446.7 158.49C431.26 158.49 420.54 150.77 416.25 140.9V156.34H387.09V2.97041L417.97 0.17041V68.3704C422.47 59.3704 432.34 52.0704 446.71 52.0704C475.02 52.0704 488.71 73.5204 488.71 102.07L488.7 108.49ZM457.82 101.41C457.82 87.0404 452.25 76.3204 437.45 76.3204C424.79 76.3204 417.93 85.3204 417.93 99.9104V110.63C417.93 125.21 424.79 134.22 437.45 134.22C452.25 134.22 457.82 123.5 457.82 109.13V101.41Z" fill="#1877F2"/>
<path d="M499.029 107.84V102.7C499.029 73.3103 515.759 52.0803 549.859 52.0803C583.959 52.0803 600.699 73.3103 600.699 102.7V107.84C600.699 137.22 583.969 158.46 549.869 158.46C515.769 158.46 499.029 137.22 499.029 107.84ZM569.809 100.55C569.809 87.0403 564.229 76.3203 549.809 76.3203C535.389 76.3203 529.859 87.0403 529.859 100.55V109.99C529.859 123.5 535.439 134.22 549.809 134.22C564.179 134.22 569.809 123.5 569.809 109.99V100.55Z" fill="#1877F2"/>
<path d="M610.969 107.84V102.7C610.969 73.3103 627.699 52.0803 661.799 52.0803C695.899 52.0803 712.629 73.3103 712.629 102.7V107.84C712.629 137.22 695.899 158.46 661.799 158.46C627.699 158.46 610.969 137.22 610.969 107.84ZM681.749 100.55C681.749 87.0403 676.169 76.3203 661.799 76.3203C647.429 76.3203 641.859 87.0403 641.859 100.55V109.99C641.859 123.5 647.429 134.22 661.799 134.22C676.169 134.22 681.749 123.5 681.749 109.99V100.55Z" fill="#1877F2"/>
<path d="M755.089 102.91L785.539 54.2304H818.349L786.399 104.63L819.639 156.31H786.829L755.089 106.31V156.31H724.199V2.97041L755.089 0.17041V102.91Z" fill="#1877F2"/>
</svg>
